<?xml version="1.0" encoding="utf-8"?>
<!-- Generator: Adobe Illustrator 29.6.1, SVG Export Plug-In . SVG Version: 9.03 Build 0)  -->
<svg version="1.0" id="Layer_1" xmlns="http://www.w3.org/2000/svg" xmlns:xlink="http://www.w3.org/1999/xlink" x="0px" y="0px"
	 viewBox="0 0 1080 1080" enable-background="new 0 0 1080 1080" xml:space="preserve">
<path fill="#FFFFFF" d="M1060.97,439.75H834.94l-23.38,85.64h218.24c-4.33,18.31-30.2,79.61-44.11,84.4
	c-38.26,13.15-161.31-12.03-189.85,5c-16.64,9.93-17.58,64.29-31.04,81.88h171.48c-129.22,208.75-434.44,401.27-686.3,346.85
	C74.57,1005.63,2.06,864.36,16.63,692.89c1.87-22.05,5.99-58.72,19.38-74.07h183.17c4.07,0,10.72-67.83,23.38-77.86H67.19
	c-2.78,0-10.38-7.34-8.35-15.87c1.07-4.53,33.28-74.04,36.87-76.28c17.58-10.99,144.68,8.3,161.35-2.36
	c3.4-2.17,21.74-64.96,24.47-76.77H168.52c-2.21,0-10.85-6.96-7.89-15.43c7.56-21.67,80.3-97.56,101.21-117.13
	C552.86-35.24,1123.13-110.43,1060.97,439.75z M912.88,237.33H651.77c-90.69,0-190.81,106.55-216.53,188.56
	c-15.9,50.71-43.99,234.82-64.43,262.64c-23,31.31-135.71,8.69-174.26,16.7L164.62,844.6h245.52c43.63,0,136.39-41.91,171.29-70.26
	c106.85-86.81,102.23-278.14,152.78-400.17c19.59-28.01,120.84-1.89,155.81-15.65C896.97,353.53,918.64,243.15,912.88,237.33z"/>
<g>
</g>
<g>
</g>
<g>
</g>
<g>
</g>
<g>
</g>
<g>
</g>
</svg>
