<svg xmlns="http://www.w3.org/2000/svg" xmlns:xlink="http://www.w3.org/1999/xlink" width="4000" zoomAndPan="magnify" viewBox="0 0 3000 749.999995" height="1000" preserveAspectRatio="xMidYMid meet" version="1.0"><defs><g/><clipPath id="f1c4d90063"><rect x="0" width="575" y="0" height="458"/></clipPath></defs><g fill="#b4b4b4" fill-opacity="1"><g transform="translate(1222.000854, 536.249994)"><g><path d="M 235.796875 0 L 159.75 -109.34375 L 85.046875 0 L 1.34375 0 L 117.90625 -160.203125 L 7.203125 -315 L 90 -315 L 162.453125 -212.84375 L 233.546875 -315 L 312.296875 -315 L 202.5 -162.90625 L 319.953125 0 Z M 235.796875 0 "/></g></g></g><g fill="#b4b4b4" fill-opacity="1"><g transform="translate(1574.800304, 536.249994)"><g/></g></g><g fill="#b4b4b4" fill-opacity="1"><g transform="translate(1733.650056, 536.249994)"><g><path d="M 188.546875 -111.59375 L 188.546875 0 L 115.65625 0 L 115.65625 -112.5 L -6.296875 -315 L 71.09375 -315 L 155.25 -175.046875 L 239.40625 -315 L 310.953125 -315 Z M 188.546875 -111.59375 "/></g></g></g><g fill="#b4b4b4" fill-opacity="1"><g transform="translate(2069.349568, 536.249994)"><g/></g></g><g fill="#b4b4b4" fill-opacity="1"><g transform="translate(2228.19941, 536.249994)"><g><path d="M 292.5 -59.40625 L 292.5 0 L 17.09375 0 L 17.09375 -47.25 L 189.90625 -255.59375 L 20.703125 -255.59375 L 20.703125 -315 L 285.75 -315 L 285.75 -267.75 L 113.40625 -59.40625 Z M 292.5 -59.40625 "/></g></g></g><g transform="matrix(1, 0, 0, 1, 388, -0.000000000000042435)"><g clip-path="url(#f1c4d90063)"><g fill="#b4b4b4" fill-opacity="1"><g transform="translate(1.195926, 360.646404)"><g><path d="M 148.421875 -269.15625 C 172.253906 -269.15625 192.953125 -265.179688 210.515625 -257.234375 C 228.078125 -249.285156 241.597656 -238.003906 251.078125 -223.390625 C 260.566406 -208.785156 265.3125 -191.484375 265.3125 -171.484375 C 265.3125 -151.742188 260.566406 -134.503906 251.078125 -119.765625 C 241.597656 -105.023438 228.078125 -93.742188 210.515625 -85.921875 C 192.953125 -78.109375 172.253906 -74.203125 148.421875 -74.203125 L 94.203125 -74.203125 L 94.203125 0 L 31.90625 0 L 31.90625 -269.15625 Z M 144.953125 -124.96875 C 163.671875 -124.96875 177.898438 -129.003906 187.640625 -137.078125 C 197.378906 -145.148438 202.25 -156.617188 202.25 -171.484375 C 202.25 -186.609375 197.378906 -198.207031 187.640625 -206.28125 C 177.898438 -214.351562 163.671875 -218.390625 144.953125 -218.390625 L 94.203125 -218.390625 L 94.203125 -124.96875 Z M 144.953125 -124.96875 "/></g></g></g><g fill="#b4b4b4" fill-opacity="1"><g transform="translate(309.565071, 360.646404)"><g><path d="M 87.671875 -218.390625 L 1.53125 -218.390625 L 1.53125 -269.15625 L 236.078125 -269.15625 L 236.078125 -218.390625 L 149.953125 -218.390625 L 149.953125 0 L 87.671875 0 Z M 87.671875 -218.390625 "/></g></g></g></g></g></svg>