<?xml version="1.0" encoding="utf-8"?>
<!-- Generator: Adobe Illustrator 29.6.1, SVG Export Plug-In . SVG Version: 9.03 Build 0)  -->
<svg version="1.0" id="katman_1" xmlns="http://www.w3.org/2000/svg" xmlns:xlink="http://www.w3.org/1999/xlink" x="0px" y="0px"
	 viewBox="0 0 1157.10669 252.74355" enable-background="new 0 0 1157.10669 252.74355" xml:space="preserve">
<desc>Created with Sketch.</desc>
<g id="LOGOS">
	<g id="Group">
		<path id="Fill-1" fill-rule="evenodd" clip-rule="evenodd" fill="#FFFFFF" d="M51.96459,155.40927H15.438V91.42979
			c0-2.35207,0-5.90536-4.01887-5.90536c-3.79314,0-3.79314,3.27314-3.79314,5.90536v64.24754
			c0,5.33499,0.7296,6.01018,6.51001,6.01018h37.82859c2.54757,0,5.71793,0,5.71793-3.19051
			C57.68252,155.40927,54.51217,155.40927,51.96459,155.40927"/>
		<path id="Fill-2" fill-rule="evenodd" clip-rule="evenodd" fill="#FFFFFF" d="M68.27589,106.20731
			c-3.56538,0-3.56538,2.98493-3.56538,5.38335v46.06991c0,2.35207,0,5.28056,3.56538,5.28056
			c3.45252,0,3.45252-2.9285,3.45252-5.28056v-46.06991C71.72842,109.44618,71.72842,106.20731,68.27589,106.20731"/>
		<path id="Fill-3" fill-rule="evenodd" clip-rule="evenodd" fill="#FFFFFF" d="M68.27589,87.61447
			c-2.50726,0-4.47235,1.81192-4.47235,4.12772c0,2.2775,2.00743,4.12972,4.47235,4.12972
			c2.42463,0,4.47236-1.89053,4.47236-4.12972C72.74825,89.46469,70.74285,87.61447,68.27589,87.61447"/>
		<path id="Fill-4" fill-rule="evenodd" clip-rule="evenodd" fill="#FFFFFF" d="M96.28104,95.20679
			c-0.03629,0.0766-0.07056,0.1552-0.10279,0.23179C96.21048,95.36199,96.24475,95.28339,96.28104,95.20679z M102.82933,107.46094
			h-7.53186v-4.7505c0-6.78008,0.63489-11.22624,9.11805-11.22624c0.32449,0,1.26774,0.09675,2.26741,0.19753
			c1.07628,0.10883,2.18882,0.21968,2.602,0.21968c1.7837,0,2.88818-1.43703,2.88818-2.77129
			c0-0.0645-0.01814-1.61037-1.61843-2.34804c-1.2879-0.59658-5.01049-1.25766-8.2917-1.25766
			c-2.45083,0-4.97824,0.56837-7.11666,1.59827c-2.29362,1.10651-4.07934,2.6947-5.16166,4.59127
			c-0.73363,1.2375-1.70711,3.62787-1.70711,10.05726v5.68971h-5.94769c-1.1065,0-4.47235,0-4.47235,2.35408
			c0,2.45889,3.13407,2.45889,4.47235,2.45889h5.94769v45.38667c0,2.35207,0,5.28056,3.56741,5.28056
			c3.45251,0,3.45251-2.9285,3.45251-5.28056V112.2739h7.53186c2.96881,0,4.47236-0.82835,4.47236-2.45889
			C107.30169,107.46094,104.39335,107.46094,102.82933,107.46094L102.82933,107.46094z"/>
		<path id="Fill-5" fill-rule="evenodd" clip-rule="evenodd" fill="#FFFFFF" d="M114.76301,130.02629
			c0.86464-6.89497,5.84288-18.48401,19.07655-18.48401c16.41208,0,17.82492,13.90079,18.28647,18.48401H114.76301z
			 M159.49261,130.81232c0-0.26402-0.0383-6.53218-3.30539-12.6532c-1.86029-3.48477-4.40787-6.25607-7.56815-8.2393
			c-0.34665-0.21767-0.74371-0.37487-1.10649-0.57441c-0.25194-0.13705-0.51193-0.27008-0.77394-0.40108
			c-0.77396-0.38496-1.5741-0.73162-2.41254-1.03394c-0.25194-0.0907-0.51396-0.17535-0.77597-0.25999
			c-0.92308-0.29829-1.8764-0.55425-2.87004-0.75581c-0.20357-0.04233-0.41318-0.07658-0.61876-0.11287
			c-1.14882-0.20961-2.33795-0.35472-3.57346-0.43736c-0.11487-0.00807-0.22975-0.01411-0.34464-0.02016
			c-0.69333-0.0383-1.35843-0.1169-2.07594-0.1169c-8.33,0-15.19876,2.69268-19.86259,7.78783
			c-4.52878,4.94801-6.92318,12.06467-6.92318,20.58009c0,8.26953,2.26137,15.24713,6.54025,20.18506
			c2.26138,2.61005,5.07298,4.62755,8.35418,6.00009c3.45856,1.44713,7.4593,2.18076,11.89135,2.18076
			c10.25478,0,16.24478-4.07933,19.46352-7.49962c3.67221-3.90398,4.82909-8.03169,4.82909-8.85199
			c0-1.41084-1.4189-2.98091-3.45453-2.98091c-1.43503,0-2.74509,0.91504-3.33563,2.33192
			c-2.03362,4.73637-5.12537,8.09013-9.18858,9.9726c-2.42462,1.12263-5.14552,1.69099-8.08813,1.69099
			c-6.25002,0-11.16577-2.11827-14.61023-6.30038c-3.17237-3.84958-4.91576-9.36394-5.04072-15.9445h38.33851
			C156.47545,135.35924,159.49261,135.35924,159.49261,130.81232L159.49261,130.81232z"/>
		<path id="Fill-6" fill-rule="evenodd" clip-rule="evenodd" fill="#FFFFFF" d="M195.41658,85.52442
			c-3.90399,0-3.90399,3.5533-3.90399,5.90536v65.60598c0,2.49113,0,5.90536,4.01888,5.90536
			c3.79314,0,3.79314-3.27516,3.79314-5.90536V91.42979C199.3246,88.79756,199.3246,85.52442,195.41658,85.52442"/>
		<path id="Fill-7" fill-rule="evenodd" clip-rule="evenodd" fill="#FFFFFF" d="M323.11353,125.29393
			c2.54355,0,3.94632-2.20696,3.94632-3.98461V76.14436h-8.04984v45.16496
			C319.01001,123.15953,320.48938,125.29393,323.11353,125.29393"/>
		<path id="Fill-8" fill-rule="evenodd" clip-rule="evenodd" fill="#FFFFFF" d="M248.98811,134.75662
			c-0.47768-0.26807-1.01984-0.47162-1.52774-0.70946c-0.17131-0.08263-0.34262-0.16527-0.51796-0.24185
			c-3.83749-1.70712-8.36627-2.73099-12.81447-3.6823c-4.30505-0.92107-8.37431-1.79176-11.39351-3.24895
			c-3.37593-1.63052-4.95003-3.76492-4.95003-6.71558c0-5.95173,7.08241-8.6162,14.10233-8.6162
			c7.27591,0,12.85475,2.86804,14.55986,7.48551c1.01782,2.81966,1.81795,3.27515,3.33562,3.27515
			c3.19051,0,3.22881-2.74509,3.22881-2.7733c0-0.70341-0.56636-3.96244-3.32758-7.02396
			c-1.66679-1.84417-3.83949-3.30943-6.4576-4.35345c-3.2308-1.29193-7.161-1.94494-11.67973-1.94494
			c-7.86038,0-13.65691,2.13239-17.22833,6.34071c-3.27516,3.85561-3.44043,8.05991-3.44043,8.86409
			c0,3.9705,2.04169,7.69713,5.46196,9.9706c3.48276,2.30571,7.09045,3.18245,14.27567,4.93187
			c1.94896,0.47163,4.15593,1.00977,6.69543,1.65674l0.29829,0.07658c3.91809,0.97954,11.21011,2.80354,11.21011,9.37604
			c0,5.06691-4.92181,10.18019-15.91223,10.18019c-7.97931,0-13.41104-3.04539-16.14403-9.05556l-0.07458-0.16325
			c-0.75983-1.70509-1.47733-3.31548-3.4888-3.31548c-0.82231,0-1.67082,0.29427-2.32787,0.80821
			c-0.72559,0.56837-1.12463,1.33829-1.12463,2.1727c0,3.08569,2.5798,7.41092,6.13713,10.28096
			c1.75145,1.42294,3.61377,2.42867,5.86305,3.16835c2.94461,0.96944,6.4455,1.44107,10.70624,1.44107
			c9.0495,0,15.67038-2.20091,19.67715-6.53621c3.55128-3.84555,3.93625-8.21913,3.93625-9.92223
			C256.0665,141.26865,253.7507,137.43318,248.98811,134.75662"/>
		<path id="Fill-9" fill-rule="evenodd" clip-rule="evenodd" fill="#FFFFFF" d="M413.87878,111.96957
			c-2.54956-2.6282-7.34039-5.76227-15.66833-5.76227c-10.96426,0-15.54141,5.22211-18.85892,9.0999v-4.03902
			c0.00406-1.55797,0.00604-3.32353-1.00168-4.33127c-0.10681-0.10683-0.26605-0.15318-0.38901-0.23783
			c-0.0423-0.02821-0.08865-0.05442-0.133-0.08062c-0.51193-0.31039-1.11658-0.51596-1.92883-0.51596
			c-3.56741,0-3.56741,3.11191-3.56741,5.38335v46.0699c0,2.52541,0,5.38538,3.56741,5.38538
			c0.81226,0,1.4169-0.20558,1.92883-0.51598c0.04434-0.02618,0.0907-0.05238,0.133-0.08061
			c0.12296-0.08665,0.2822-0.131,0.38901-0.23782c1.00772-1.00775,1.00574-2.7733,1.00168-4.33328V138.1265
			c0-8.77339,0.29431-13.26589,2.03363-16.6902c1.46729-2.85393,3.83951-5.28056,6.8587-7.01389
			c2.88013-1.65673,6.21777-2.56772,9.40021-2.56772c4.72025,0,8.93665,1.90665,11.28268,5.09917
			c2.07797,2.76927,2.36618,6.94133,2.36618,11.0388v29.78078c-0.00204,1.55998-0.00604,3.32553,1.00369,4.33328
			c0.10483,0.10683,0.26404,0.15117,0.38699,0.23782c0.0423,0.02823,0.08868,0.05443,0.133,0.08061
			c0.51193,0.31039,1.11658,0.51598,1.92883,0.51598c3.5694,0,3.5694-2.98694,3.5694-5.38538v-31.23595
			C418.31485,123.41147,418.31485,116.5951,413.87878,111.96957"/>
		<path id="Fill-10" fill-rule="evenodd" clip-rule="evenodd" fill="#FFFFFF" d="M334.28937,84.53482v7.74348
			c12.92532,4.47437,22.24695,16.73656,22.24695,31.1634c0,18.19578-14.80173,32.99747-32.9975,32.99747
			c-18.19376,0-32.9975-14.8017-32.9975-32.99747c0-14.14668,8.9689-26.20935,21.50519-30.89131v-7.8241
			c-16.69424,4.96413-28.91208,20.43095-28.91208,38.71542c0,22.28115,18.12524,40.40438,40.40439,40.40438
			c22.28113,0,40.4064-18.12323,40.4064-40.40438C363.94522,104.88918,351.3605,89.25911,334.28937,84.53482"/>
		<path id="Fill-11" fill-rule="evenodd" clip-rule="evenodd" fill="#FFFFFF" d="M628.2395,93.01597
			c-13.46344-5.97993-21.49713-8.29774-29.4704-8.29774c-8.36829,0-13.72748,2.99501-13.72748,7.6286
			c0,13.97738,47.41626,10.04114,47.41626,42.37351c0,17.82494-14.95892,28.1825-35.73853,28.1825
			c-16.30524,0-24.3269-4.2184-33.57391-8.99309v-19.99559c13.33643,8.83588,21.49512,11.95784,31.78015,11.95784
			c8.92249,0,13.73346-3.12196,13.73346-8.56175c0-15.22093-47.41626-9.64812-47.41626-42.93584
			c0-16.05332,13.87457-26.67894,35.47656-26.67894c10.42407,0,19.83032,2.18478,31.52014,7.21341V93.01597"/>
		<path id="Fill-12" fill-rule="evenodd" clip-rule="evenodd" fill="#FFFFFF" d="M694.62543,158.65218
			c-7.9007,2.86803-14.58398,4.23654-21.25323,4.23654c-22.08362,0-36.35931-12.86279-36.35931-32.43112
			c0-19.20755,14.82788-32.77982,35.539-32.77982c6.39716,0,14.57397,1.64061,21.1142,4.07531v14.70496
			c-5.17578-2.75114-11.17181-4.25871-16.07745-4.25871c-11.85107,0-19.47968,7.12473-19.47968,18.11111
			c0,11.15167,7.49963,18.49005,18.79437,18.49005c4.76465,0,9.00116-1.09843,17.72211-4.36151V158.65218"/>
		<path id="Fill-13" fill-rule="evenodd" clip-rule="evenodd" fill="#FFFFFF" d="M866.79205,123.25224
			c0.81219-8.72905,5.87714-13.77583,13.63873-13.77583c7.63672,0,12.80841,5.18987,13.62463,13.77583H866.79205z
			 M879.07037,97.69592c-19.37689,0-33.17084,13.68917-33.17084,32.94509c0,19.39902,14.34821,32.24771,36.45209,32.24771
			c4.89551,0,16.74255,0,28.02728-8.35417v-12.27428c-9.24707,6.58055-15.36005,8.84998-23.25067,8.84998
			c-12.45367,0-20.06812-6.44753-20.75537-17.44199h45.11255C912.42456,110.70586,897.35077,97.69592,879.07037,97.69592
			L879.07037,97.69592z"/>
		<polygon id="Fill-14" fill-rule="evenodd" clip-rule="evenodd" fill="#FFFFFF" points="919.12,161.74394 938.84955,161.74394 
			938.84955,98.85683 919.12,98.85683 		"/>
		<path id="Fill-15" fill-rule="evenodd" clip-rule="evenodd" fill="#FFFFFF" d="M993.74524,144.55388
			c-4.10754,3.6964-7.52179,5.17979-11.74017,5.17979c-9.28735,0-15.16241-7.6407-15.16241-19.09871
			c0-12.55647,5.87506-19.79205,15.8175-19.79205c3.56329,0,8.20905,1.63657,11.08508,3.69035V144.55388z M993.74524,68.85235
			v32.7657c-5.32886-2.58183-10.6377-3.93623-16.3858-3.93623c-17.99023,0-30.44183,13.29411-30.44183,32.54198
			c0,18.82863,12.4516,32.68105,29.33124,32.68105c6.69348,0,11.8692-1.75749,17.4964-6.24597v5.06491h19.72357V68.85235H993.74524
			L993.74524,68.85235z"/>
		<path id="Fill-16" fill-rule="evenodd" clip-rule="evenodd" fill="#FFFFFF" d="M1042.66907,123.25224
			c0.82031-8.72905,5.85901-13.77583,13.6167-13.77583c7.6427,0,12.86279,5.18987,13.68311,13.77583H1042.66907z
			 M1054.9353,97.69592c-19.3728,0-33.14459,13.68917-33.14459,32.94509c0,19.39902,14.34613,32.24771,36.42987,32.24771
			c4.8916,0,16.75476,0,28.06555-8.35417v-12.27428c-9.25098,6.58055-15.3761,8.84998-23.30298,8.84998
			c-12.39124,0-20.03796-6.44753-20.72314-17.44199h45.09631C1088.29358,110.70586,1073.20569,97.69592,1054.9353,97.69592
			L1054.9353,97.69592z"/>
		<path id="Fill-17" fill-rule="evenodd" clip-rule="evenodd" fill="#FFFFFF" d="M1116.88928,116.86316h0.29016
			c5.85303-13.08855,12.40735-19.22367,20.01782-19.22367c3.94226,0,7.34448,1.50153,13.06433,5.73808l-5.42566,17.43192
			c-5.18579-3.2671-8.58801-4.63158-11.71802-4.63158c-7.2356,0-11.86719,6.82039-16.22864,18.35097v27.13042h-19.75586V98.79436
			h19.75586V116.86316"/>
		<path id="Fill-18" fill-rule="evenodd" clip-rule="evenodd" fill="#FFFFFF" d="M939.77069,72.40564
			c1.85419,4.88554-1.47937,11.69787-7.4231,15.20279c-5.96576,3.50492-12.27026,2.39439-14.11237-2.49315
			c-1.86639-4.89561,1.44916-11.716,7.41089-15.20279C931.59381,66.38943,937.90228,67.51004,939.77069,72.40564"/>
		<path id="Fill-19" fill-rule="evenodd" clip-rule="evenodd" fill="#FFFFFF" d="M765.67926,121.71846
			c0-17.03889-11.57892-24.02254-23.01074-24.02254c-7.77173,0-14.16077,3.28323-19.87671,10.51881h-0.27209v-39.3644h-19.74158
			v92.7102h19.74158v-39.84207c4.61957-6.68334,8.56989-9.54129,13.19342-9.54129c6.1391,0,10.22253,4.36552,10.22253,13.7597
			v22.09171c6.62079-3.40213,13.35455-5.49219,19.74359-6.26816V121.71846"/>
		<path id="Fill-20" fill-rule="evenodd" clip-rule="evenodd" fill="#FFFFFF" d="M815.20972,97.6798
			c-8.04376,0-14.18292,2.98695-20.46918,10.17416v-8.99712h-19.73761v42.73429c6.8385,0.68324,15.56354,3.81732,19.73761,8.99913
			v-29.36559c5.18988-7.78783,8.87219-10.38376,13.78186-10.38376c5.591,0,9.8396,3.69236,9.8396,12.55645v38.1813h19.74164
			v-39.80981C838.10364,103.24858,825.02319,97.6798,815.20972,97.6798"/>
		<polyline id="Fill-21" fill-rule="evenodd" clip-rule="evenodd" fill="#FFFFFF" points="849.00946,179.63739 826.06921,179.63739 
			826.06921,195.9366 848.20117,195.9366 848.20117,202.93234 826.06921,202.93234 826.06921,219.7455 849.6947,219.7455 
			849.6947,226.73116 818.37805,226.73116 818.37805,172.65979 849.00946,172.65979 849.00946,179.63739 		"/>
		<polygon id="Fill-22" fill-rule="evenodd" clip-rule="evenodd" fill="#FFFFFF" points="867.74536,226.76138 874.77136,226.76138 
			874.77136,172.63963 867.74536,172.63963 		"/>
		<path id="Fill-23" fill-rule="evenodd" clip-rule="evenodd" fill="#FFFFFF" d="M909.55859,196.45055
			c4.98425,0,8.06995,3.43237,8.30176,8.82378h-17.89551C900.93225,199.64307,904.17725,196.45055,909.55859,196.45055
			 M899.83386,209.96436h25.03632c0-13.19334-6.02832-19.56026-15.47284-19.56026c-9.79529,0-16.59351,7.24164-16.59351,18.03856
			c0,9.87184,6.14325,18.98988,17.20618,18.98988c6.02631,0,9.92828-1.3423,14.24347-4.20831v-6.84056
			c-4.17212,2.73299-8.21716,4.30708-12.47388,4.30708C904.9754,220.69075,900.93225,217.0387,899.83386,209.96436"/>
		<path id="Fill-24" fill-rule="evenodd" clip-rule="evenodd" fill="#FFFFFF" d="M970.7547,200.44524
			c-4.04303-2.76927-6.73981-3.5795-9.81744-3.5795c-6.43341,0-10.8877,4.9339-10.8877,12.16142
			c0,7.35651,4.74048,11.79259,12.06476,11.79259c3.00903,0,5.8811-0.77998,9.42633-2.36618v6.92722
			c-2.36816,1.12062-6.8808,2.04774-10.60339,2.04774c-10.6377,0-18.02649-7.31622-18.02649-17.77658
			c0-11.79662,6.74585-19.24785,17.5448-19.24785c4.12366,0,6.89697,0.95937,10.29913,2.45284V200.44524"/>
		<path id="Fill-25" fill-rule="evenodd" clip-rule="evenodd" fill="#FFFFFF" d="M1002.76855,191.08331h11.27466v6.33063h-11.27466
			v18.3026c0,4.1902,3.03131,5.39948,5.08105,5.39948c2.54156,0,5.16364-0.89285,8.01355-2.64833v6.59264
			c-2.47101,1.35643-6.25604,2.36821-8.5799,2.36821c-7.64874,0-11.51447-4.74849-11.51447-11.18192v-18.83267h-6.20367v-0.78401
			l13.20343-12.91724V191.08331"/>
		<path id="Fill-26" fill-rule="evenodd" clip-rule="evenodd" fill="#FFFFFF" d="M1040.91565,191.08331v8.25137h0.14307
			c3.58557-6.31651,6.9917-8.93462,10.3092-8.93462c2.85596,0,5.54065,1.34232,8.48315,4.12971l-3.72266,6.19157
			c-2.14038-2.11223-4.90771-3.57547-6.58044-3.57547c-4.83313,0-8.63232,4.91779-8.63232,11.0126v18.60692h-7.01794v-35.6821
			H1040.91565"/>
		<path id="Fill-27" fill-rule="evenodd" clip-rule="evenodd" fill="#FFFFFF" d="M1131.85217,200.44524
			c-4.06116-2.76927-6.75391-3.5795-9.85364-3.5795c-6.41528,0-10.83325,4.9339-10.83325,12.16142
			c0,7.35651,4.74841,11.79259,12.02441,11.79259c3.01721,0,5.86694-0.77998,9.46069-2.36618v6.92722
			c-2.41663,1.12062-6.93738,2.04774-10.65186,2.04774c-10.61963,0-18.03857-7.31622-18.03857-17.77658
			c0-11.79662,6.776-19.24785,17.57495-19.24785c4.13379,0,6.87476,0.95937,10.31726,2.45284V200.44524"/>
		<polygon id="Fill-28" fill-rule="evenodd" clip-rule="evenodd" fill="#FFFFFF" points="1078.47217,226.76138 
			1085.50012,226.76138 1085.50012,191.0813 1078.47217,191.0813 		"/>
		<path id="Fill-29" fill-rule="evenodd" clip-rule="evenodd" fill="#FFFFFF" d="M1085.73792,178.26483
			c0.68726,1.72528-0.51392,4.15392-2.62207,5.39951c-2.13037,1.24355-4.38171,0.84247-5.02466-0.8828
			c-0.64087-1.73936,0.52209-4.15593,2.65637-5.39948C1082.85779,176.1244,1085.09497,176.52548,1085.73792,178.26483"/>
		<path id="Fill-30" fill-rule="evenodd" clip-rule="evenodd" fill="#FFFFFF" d="M771.22797,181.149
			c-1.23956,0-1.7616,0.20155-2.26947,0.7679c-0.19556,0.22372-0.27618,0.44542-0.34869,0.89085l-6.2984,23.89958
			c-1.48132,8.37634-11.77649,16.74866-25.1955,16.74866h-18.6554l3.23688-12.28235h11.98608
			c1.2254,0,2.17877-0.44946,2.9809-1.34232c0.29028-0.34666,0.67926-0.89082,0.7276-1.44913l4.97626-20.87839
			c1.46722-8.38643,10.32526-17.64757,23.74036-17.64757h19.10077L782.7666,181.149H771.22797z M775.53497,195.71088
			l2.13037-7.72939h19.40918c2.39435-11.21011,0.50787-21.59792-6.29639-28.40219
			c-13.76776-13.76373-42.57513-9.0858-64.03802,11.44594c-3.34766,3.18648-6.17938,6.63295-8.76123,10.15601h11.68573
			l-2.71484,7.74954h-13.95923c-1.33221,2.44275-2.58588,4.86334-3.54523,7.32425h16.55518l-2.64838,7.74954h-16.26898
			c-2.78131,11.83289-1.00769,22.87572,5.98804,29.88556c13.60248,13.59444,42.31909,8.81374,63.76984-11.71196
			c3.75488-3.57143,6.85266-7.42503,9.65216-11.38345h-15.01129l2.28754-7.73138h17.55286
			c1.28387-2.46091,2.47101-4.89159,3.39209-7.35246H775.53497L775.53497,195.71088z"/>
		<polygon id="Fill-31" fill-rule="evenodd" clip-rule="evenodd" fill="#FFFFFF" points="487.92361,244.13889 491.98077,244.13889 
			491.98077,7.81345 487.92361,7.81345 		"/>
	</g>
</g>
<g>
</g>
<g>
</g>
<g>
</g>
<g>
</g>
<g>
</g>
<g>
</g>
<g>
</g>
<g>
</g>
<g>
</g>
<g>
</g>
<g>
</g>
<g>
</g>
<g>
</g>
<g>
</g>
<g>
</g>
</svg>
