<svg xmlns="http://www.w3.org/2000/svg" xmlns:xlink="http://www.w3.org/1999/xlink" width="3000" zoomAndPan="magnify" viewBox="0 0 2250 2250.000011" height="3000" preserveAspectRatio="xMidYMid meet" version="1.0"><defs><g/><clipPath id="3ddc29c8e9"><path d="M 169.175781 112.449219 L 2080.824219 112.449219 L 2080.824219 2024.101562 L 169.175781 2024.101562 Z M 169.175781 112.449219 " clip-rule="nonzero"/></clipPath><clipPath id="a3f7e5e345"><path d="M 1125 2024.101562 C 869.808594 2024.101562 629.515625 1924.773438 449.199219 1744.078125 C 268.5 1563.761719 169.175781 1323.46875 169.175781 1068.273438 C 169.175781 813.082031 268.5 572.789062 449.199219 392.472656 C 629.515625 211.777344 869.808594 112.449219 1125 112.449219 C 1380.191406 112.449219 1620.484375 211.777344 1800.800781 392.472656 C 1981.5 573.171875 2080.824219 813.082031 2080.824219 1068.273438 C 2080.824219 1323.46875 1981.5 1563.761719 1800.800781 1744.078125 C 1620.484375 1924.773438 1380.191406 2024.101562 1125 2024.101562 Z M 1125 169.753906 C 885.089844 169.753906 659.3125 263.351562 489.691406 432.96875 C 320.074219 602.585938 226.476562 828.363281 226.476562 1068.273438 C 226.476562 1308.1875 320.074219 1533.964844 489.691406 1703.582031 C 659.3125 1873.199219 885.089844 1966.796875 1125 1966.796875 C 1364.910156 1966.796875 1590.6875 1873.199219 1760.304688 1703.582031 C 1929.925781 1533.964844 2023.523438 1308.1875 2023.523438 1068.273438 C 2023.523438 828.363281 1929.925781 602.585938 1760.304688 432.96875 C 1590.6875 263.351562 1364.910156 169.753906 1125 169.753906 Z M 1125 169.753906 " clip-rule="nonzero"/></clipPath><clipPath id="e366bc713a"><path d="M 0.175781 0.449219 L 1911.824219 0.449219 L 1911.824219 1912.101562 L 0.175781 1912.101562 Z M 0.175781 0.449219 " clip-rule="nonzero"/></clipPath><clipPath id="12d341ef0d"><path d="M 956 1912.101562 C 700.808594 1912.101562 460.515625 1812.773438 280.199219 1632.078125 C 99.5 1451.761719 0.175781 1211.46875 0.175781 956.273438 C 0.175781 701.082031 99.5 460.789062 280.199219 280.472656 C 460.515625 99.777344 700.808594 0.449219 956 0.449219 C 1211.191406 0.449219 1451.484375 99.777344 1631.800781 280.472656 C 1812.5 461.171875 1911.824219 701.082031 1911.824219 956.273438 C 1911.824219 1211.46875 1812.5 1451.761719 1631.800781 1632.078125 C 1451.484375 1812.773438 1211.191406 1912.101562 956 1912.101562 Z M 956 57.753906 C 716.089844 57.753906 490.3125 151.351562 320.691406 320.96875 C 151.074219 490.585938 57.476562 716.363281 57.476562 956.273438 C 57.476562 1196.1875 151.074219 1421.964844 320.691406 1591.582031 C 490.3125 1761.199219 716.089844 1854.796875 956 1854.796875 C 1195.910156 1854.796875 1421.6875 1761.199219 1591.304688 1591.582031 C 1760.925781 1421.964844 1854.523438 1196.1875 1854.523438 956.273438 C 1854.523438 716.363281 1760.925781 490.585938 1591.304688 320.96875 C 1421.6875 151.351562 1195.910156 57.753906 956 57.753906 Z M 956 57.753906 " clip-rule="nonzero"/></clipPath><clipPath id="15f283b3ec"><rect x="0" width="1912" y="0" height="1913"/></clipPath></defs><g clip-path="url(#3ddc29c8e9)"><g clip-path="url(#a3f7e5e345)"><g transform="matrix(1, 0, 0, 1, 169, 112)"><g clip-path="url(#15f283b3ec)"><g clip-path="url(#e366bc713a)"><g clip-path="url(#12d341ef0d)"><path fill="#a6a6a6" d="M 0.175781 0.449219 L 1911.824219 0.449219 L 1911.824219 1912.101562 L 0.175781 1912.101562 Z M 0.175781 0.449219 " fill-opacity="1" fill-rule="nonzero"/></g></g></g></g></g></g><g fill="#b4b4b4" fill-opacity="1"><g transform="translate(384.038173, 1307.044143)"><g><path d="M 267.125 0 L 180.96875 -123.875 L 96.34375 0 L 1.53125 0 L 133.5625 -181.484375 L 8.15625 -356.84375 L 101.953125 -356.84375 L 184.03125 -241.125 L 264.5625 -356.84375 L 353.78125 -356.84375 L 229.390625 -184.53125 L 362.4375 0 Z M 267.125 0 "/></g></g></g><g fill="#b4b4b4" fill-opacity="1"><g transform="translate(783.699886, 1307.044143)"><g/></g></g><g fill="#b4b4b4" fill-opacity="1"><g transform="translate(963.649654, 1307.044143)"><g><path d="M 213.59375 -126.421875 L 213.59375 0 L 131.015625 0 L 131.015625 -127.4375 L -7.140625 -356.84375 L 80.546875 -356.84375 L 175.875 -198.296875 L 271.203125 -356.84375 L 352.25 -356.84375 Z M 213.59375 -126.421875 "/></g></g></g><g fill="#b4b4b4" fill-opacity="1"><g transform="translate(1343.940097, 1307.044143)"><g/></g></g><g fill="#b4b4b4" fill-opacity="1"><g transform="translate(1523.889866, 1307.044143)"><g><path d="M 331.34375 -67.296875 L 331.34375 0 L 19.375 0 L 19.375 -53.53125 L 215.125 -289.546875 L 23.453125 -289.546875 L 23.453125 -356.84375 L 323.703125 -356.84375 L 323.703125 -303.3125 L 128.46875 -67.296875 Z M 331.34375 -67.296875 "/></g></g></g></svg>